<svg  viewbox="0 0 32 32"  xmlns="http://www.w3.org/2000/svg" xmlns:xlink="http://www.w3.org/1999/xlink" width="32" height="32" stroke="#FFFFFF" fill="currentColor"><path d="M22.2 7.1c2.5 0 4.4 2.4 4.5 5.3 0 5.6-6.8 10.2-10.7 12.1-3.9-1.9-10.7-6.5-10.7-12.1 0-2.9 2-5.3 4.5-5.3 1.1 0 2.4 0.8 3.3 2.1l1.5 1.6c0.7 1 2.2 1 2.8 0l1.5-1.6c1-1.3 2.2-2.1 3.3-2.1zM22.2 3.6c-2.5 0-4.8 1.5-6.2 3.5-1.5-2-3.7-3.6-6.2-3.5-4.4 0-8 4-8 8.8 0 10.2 14.2 16 14.2 16s14.2-5.8 14.2-16c0-4.9-3.6-8.9-8-8.8v0z"  /></svg>
